<svg preserveAspectRatio="none" width="100%" height="100%" overflow="visible" style="display: block;" viewBox="0 0 22.5111 32" fill="none" xmlns="http://www.w3.org/2000/svg">
<g id="mark">
<path id="Vector" d="M1.23272 27.5857H21.2783C21.9585 27.5857 22.511 28.1813 22.511 28.9152V30.6706C22.511 31.4041 21.9587 32 21.2783 32H1.23246C0.552281 32 0 31.4044 0 30.6708V28.9154C0 28.1819 0.552281 27.5857 1.23272 27.5857Z" fill="var(--fill-0, #CBCDD0)"/>
<path id="Vector_2" d="M20.957 15.632L15.7304 12.3775C15.5598 12.2712 15.5598 12.0058 15.7304 11.8996L20.957 8.6454C21.5466 8.27821 21.7485 7.4652 21.4082 6.82931L20.5943 5.30923C20.2538 4.67334 19.4999 4.45567 18.9106 4.82259L13.684 8.07682C13.5134 8.18303 13.3003 8.05034 13.3003 7.83791V1.32945C13.3003 0.59534 12.7485 0 12.0676 0H10.4399C9.75919 0 9.20742 0.595065 9.20742 1.32917V7.83791C9.20742 8.05034 8.99433 8.18303 8.82371 8.07682L3.59712 4.82259C3.0075 4.4554 2.25364 4.67334 1.91342 5.30923L1.09971 6.82931C0.759235 7.4652 0.96132 8.27821 1.55095 8.64513L6.77754 11.8994C6.94816 12.0056 6.94816 12.271 6.77754 12.3772L1.55095 15.6317C0.96132 15.9989 0.759491 16.8119 1.09971 17.4475L1.91342 18.9676C2.2539 19.6035 3.00775 19.8211 3.59712 19.4542L8.82371 16.1997C8.99433 16.0935 9.20742 16.2262 9.20742 16.4386V22.9474C9.20742 23.6815 9.75919 24.2765 10.4399 24.2765H12.0676C12.7483 24.2765 13.3003 23.6815 13.3003 22.9471V16.4383C13.3003 16.2259 13.5134 16.0932 13.684 16.1994L18.9106 19.4539C19.5002 19.8211 20.2538 19.6032 20.5943 18.9676L21.4082 17.4472C21.7487 16.8113 21.5466 15.9983 20.957 15.6314V15.632Z" fill="var(--fill-0, #CBCDD0)"/>
</g>
</svg>
